<?xml version="1.0" standalone="no"?>
<!DOCTYPE svg PUBLIC "-//W3C//DTD SVG 20010904//EN"
 "http://www.w3.org/TR/2001/REC-SVG-20010904/DTD/svg10.dtd">
<svg version="1.0" xmlns="http://www.w3.org/2000/svg"
 width="182.000000pt" height="182.000000pt" viewBox="0 0 182.000000 182.000000"
 preserveAspectRatio="xMidYMid meet">
<metadata>
Created by potrace 1.11, written by Peter Selinger 2001-2013
</metadata>
<g transform="translate(0.000000,182.000000) scale(0.100000,-0.100000)"
fill="#000000" stroke="none">
<path d="M981 1715 c-28 -59 -51 -110 -51 -114 0 -3 -4 -12 -8 -19 -7 -10 -17
-9 -52 3 -54 19 -68 9 -45 -35 18 -34 10 -49 -25 -50 -29 0 -118 -60 -158
-105 -57 -64 -82 -137 -89 -257 l-6 -98 -94 0 c-93 0 -94 0 -104 -27 -15 -40
-8 -335 9 -341 9 -3 12 -60 12 -242 l0 -238 -35 -92 c-19 -50 -35 -94 -35 -96
0 -2 68 -4 150 -4 85 0 150 4 150 9 0 5 -16 47 -35 92 l-35 83 0 238 c0 273
17 327 22 70 l3 -167 36 -55 c20 -30 41 -65 48 -77 12 -23 12 -23 276 -23
l265 0 40 85 40 85 0 160 c0 100 4 160 10 160 6 0 10 -85 10 -235 l0 -236 -35
-90 c-19 -50 -35 -93 -35 -95 0 -2 68 -4 150 -4 84 0 150 4 150 9 0 5 -16 51
-35 101 l-35 92 0 228 c0 190 2 230 15 240 12 10 15 43 15 179 0 117 -4 171
-12 179 -8 8 -46 12 -105 12 l-93 0 0 78 c0 43 -6 101 -14 130 l-13 52 38 0
c47 0 69 8 69 26 0 8 -3 14 -7 14 -5 1 -21 11 -37 24 l-29 24 68 116 c38 67
65 123 61 131 -14 37 -249 164 -335 181 -28 6 -30 4 -80 -101z m-54 -271 c50
-38 175 -104 235 -123 38 -13 47 -28 63 -108 l7 -33 -286 0 c-157 0 -286 4
-286 9 0 20 31 94 50 118 24 30 25 43 6 43 -21 0 -53 -50 -73 -114 -12 -41
-22 -56 -35 -56 -43 0 -4 128 61 203 37 42 141 97 183 97 17 0 46 -14 75 -36z
m303 -319 l0 -25 -320 0 -320 0 0 25 0 25 320 0 320 0 0 -25z m0 -424 l0 -370
-24 -28 -24 -28 -249 -3 c-165 -2 -261 0 -286 8 -66 20 -68 30 -65 435 l3 355
323 0 322 0 0 -369z m-778 237 c2 -46 7 -73 16 -76 9 -3 12 16 12 73 l0 76 33
-3 32 -3 0 -155 0 -155 -79 -3 c-57 -2 -82 1 -87 10 -10 15 -12 268 -3 292 4
10 18 16 40 16 l33 0 3 -72z m880 0 c2 -46 7 -73 16 -76 9 -3 12 16 12 73 l0
76 38 -3 37 -3 0 -155 0 -155 -85 0 -85 0 -3 145 c-1 79 0 150 2 157 3 7 19
13 35 13 l30 0 3 -72z m-832 -508 l0 -220 -50 0 -50 0 0 220 0 220 50 0 50 0
0 -220z m910 0 l0 -220 -50 0 -50 0 0 220 0 220 50 0 50 0 0 -220z m-652 -212
c3 -15 -4 -18 -40 -18 -43 0 -68 13 -68 35 0 7 18 9 52 5 40 -4 54 -9 56 -22z
m422 26 c0 -3 -5 -14 -10 -25 -8 -15 -22 -19 -60 -19 -28 0 -50 3 -50 8 1 20
19 31 60 35 25 2 48 4 53 5 4 1 7 -1 7 -4z m-150 -24 c-10 -18 -21 -20 -120
-20 -61 0 -110 2 -110 4 0 2 -3 11 -6 20 -5 14 9 16 120 16 124 0 126 0 116
-20z m-499 -113 c16 -38 29 -71 29 -73 0 -2 -49 -4 -110 -4 l-110 0 25 66 c13
36 27 70 31 75 3 6 28 9 56 7 l50 -3 29 -68z m912 5 c15 -37 27 -71 27 -75 0
-4 -49 -7 -110 -7 l-109 0 25 67 c14 37 28 71 30 75 3 4 29 8 58 8 l53 0 26
-68z"/>
<path d="M841 1393 c-56 -47 -24 -133 49 -133 30 0 43 6 60 27 39 50 3 123
-60 123 -15 0 -37 -8 -49 -17z"/>
<path d="M1014 1266 c-10 -26 4 -48 28 -44 17 2 23 10 23 28 0 18 -6 26 -23
28 -13 2 -25 -3 -28 -12z"/>
<path d="M664 1006 c-3 -7 -4 -35 -2 -62 l3 -49 224 -3 c161 -2 227 1 238 9 9
8 13 28 11 63 l-3 51 -233 3 c-191 2 -233 0 -238 -12z m436 -51 l0 -25 -205 0
-205 0 0 25 0 25 205 0 205 0 0 -25z"/>
<path d="M664 856 c-3 -7 -4 -35 -2 -62 l3 -49 235 0 235 0 3 48 c5 78 10 77
-245 77 -181 0 -225 -3 -229 -14z m436 -56 l0 -30 -205 0 -205 0 0 30 0 30
205 0 205 0 0 -30z"/>
<path d="M837 684 c-4 -4 -7 -61 -7 -126 l0 -119 68 3 67 3 0 120 0 120 -60 3
c-34 2 -64 0 -68 -4z m93 -124 l0 -90 -35 0 -35 0 0 90 0 90 35 0 35 0 0 -90z"/>
<path d="M1164 636 c-8 -20 -1 -47 11 -49 6 -1 11 13 13 31 3 32 -14 45 -24
18z"/>
<path d="M645 620 c-3 -5 0 -13 8 -16 23 -8 92 0 92 11 0 14 -92 19 -100 5z"/>
<path d="M645 540 c-3 -5 0 -13 8 -16 23 -8 92 0 92 11 0 14 -92 19 -100 5z"/>
<path d="M1167 533 c-4 -3 -7 -38 -7 -77 0 -74 -17 -116 -46 -116 -8 0 -14 -7
-14 -15 0 -8 6 -15 14 -15 54 0 76 44 76 150 0 73 -6 91 -23 73z"/>
<path d="M645 460 c-3 -5 0 -13 8 -16 23 -8 92 0 92 11 0 14 -92 19 -100 5z"/>
<path d="M873 383 c-21 -8 -15 -51 9 -64 18 -10 24 -8 40 11 30 37 -2 72 -49
53z"/>
</g>
</svg>
